<?xml version="1.0" encoding="UTF-8"?>
<svg id="Camada_1" data-name="Camada 1" xmlns="http://www.w3.org/2000/svg" xmlns:xlink="http://www.w3.org/1999/xlink" viewBox="0 0 1024 1024">
  <defs>
    <style>
      .cls-1 {
        fill: url(#Gradiente_sem_nome_207);
      }

      .cls-2 {
        fill: url(#Gradiente_sem_nome_207-6);
      }

      .cls-3 {
        fill: url(#Gradiente_sem_nome_207-7);
      }

      .cls-4 {
        fill: url(#Gradiente_sem_nome_207-2);
      }

      .cls-5 {
        fill: url(#Gradiente_sem_nome_207-3);
      }

      .cls-6 {
        fill: url(#Gradiente_sem_nome_207-4);
      }

      .cls-7 {
        fill: url(#Gradiente_sem_nome_207-5);
      }
    </style>
    <linearGradient id="Gradiente_sem_nome_207" data-name="Gradiente sem nome 207" x1="642.17" y1="215.32" x2="642.17" y2="963.54" gradientUnits="userSpaceOnUse">
      <stop offset="0" stop-color="#cca04e"/>
      <stop offset=".02" stop-color="#cfa654"/>
      <stop offset=".1" stop-color="#dec06e"/>
      <stop offset=".19" stop-color="#e9d381"/>
      <stop offset=".28" stop-color="#efde8d"/>
      <stop offset=".37" stop-color="#f2e291"/>
      <stop offset=".46" stop-color="#eacd72"/>
      <stop offset=".65" stop-color="#d89e2e"/>
      <stop offset="1" stop-color="#96621d"/>
    </linearGradient>
    <linearGradient id="Gradiente_sem_nome_207-2" data-name="Gradiente sem nome 207" x1="512" y1="59.53" x2="512" xlink:href="#Gradiente_sem_nome_207"/>
    <linearGradient id="Gradiente_sem_nome_207-3" data-name="Gradiente sem nome 207" x1="134.82" y1="310.64" x2="134.82" y2="700.13" xlink:href="#Gradiente_sem_nome_207"/>
    <linearGradient id="Gradiente_sem_nome_207-4" data-name="Gradiente sem nome 207" x1="218.86" y1="187.65" x2="218.86" y2="433.64" xlink:href="#Gradiente_sem_nome_207"/>
    <linearGradient id="Gradiente_sem_nome_207-5" data-name="Gradiente sem nome 207" x1="372.29" y1="878.39" x2="372.29" y2="962.91" xlink:href="#Gradiente_sem_nome_207"/>
    <linearGradient id="Gradiente_sem_nome_207-6" data-name="Gradiente sem nome 207" x1="480.61" y1="877.39" x2="480.61" y2="962.91" xlink:href="#Gradiente_sem_nome_207"/>
    <linearGradient id="Gradiente_sem_nome_207-7" data-name="Gradiente sem nome 207" x1="584.07" y1="876.89" x2="584.07" y2="964.47" xlink:href="#Gradiente_sem_nome_207"/>
  </defs>
  <path class="cls-1" d="M737.49,963.54h153.74V215.32s-284.94,204.99-498.13,494.03l88.15,110.7,254.19-284.94,2.05,428.43Z"/>
  <path class="cls-4" d="M17.97,963.54h159.89S323.41,408.01,932.23,123.07c0,0,14.35,22.55,14.35,73.8,0,0,43.05-59.45,59.45-137.34l-159.89,14.35s57.4,10.25,61.5,24.6c0,0-709.27,279.81-889.66,865.07Z"/>
  <polygon class="cls-5" points="58.97 700.13 210.66 497.19 58.97 310.64 58.97 700.13"/>
  <polygon class="cls-6" points="263.96 433.64 378.76 345.49 241.41 187.65 58.97 187.65 263.96 433.64"/>
  <g>
    <path class="cls-7" d="M414.05,902.39h-5.92c-.54-5.24-1.69-9.1-3.46-11.59-1.77-2.49-3.67-4.03-5.7-4.61-2.04-.58-4.38-.87-7.04-.87h-10.72v61.9c0,2.45.25,4.35.75,5.7.5,1.35,1.66,2.4,3.49,3.15,1.83.75,4.51,1.12,8.04,1.12v5.74h-42.39v-5.74c5.19,0,8.54-.75,10.04-2.24s2.24-4.07,2.24-7.73v-61.9h-8.98c-3.53,0-6.46.28-8.79.84-2.33.56-4.37,2.1-6.14,4.61-1.77,2.51-2.77,6.39-3.02,11.63h-5.92v-24h83.53v24Z"/>
    <path class="cls-2" d="M525.24,921.4c0,6.11-1.04,11.63-3.12,16.55-2.08,4.92-4.76,9.03-8.04,12.31s-6.79,5.76-10.53,7.42c-7.9,3.49-17.56,5.24-28.99,5.24h-38.58v-5.74c3.57,0,6.27-.34,8.1-1.03,1.83-.69,3.02-1.72,3.58-3.09.56-1.37.84-3.32.84-5.86v-53.36c0-3.66-.75-6.23-2.24-7.73-1.5-1.5-4.92-2.24-10.29-2.24v-5.86l18.14-.37c.62,0,3.16-.04,7.6-.13,4.45-.08,7.02-.12,7.73-.12,6.94,0,12.83.37,17.67,1.12,4.84.75,9.28,1.95,13.31,3.62,3.7,1.5,7.11,3.58,10.22,6.26,3.12,2.68,5.74,5.73,7.89,9.16,2.14,3.43,3.79,7.16,4.96,11.19,1.16,4.03,1.75,8.25,1.75,12.65ZM505.04,921.02c0-8.77-1.67-16.11-5.02-22.03-3.35-5.92-7.89-10.02-13.62-12.31-2.49-1-5.14-1.63-7.95-1.9-2.8-.27-6.83-.41-12.06-.41v59.4c0,3.41.17,5.89.5,7.45.33,1.56,1.31,2.74,2.93,3.55,1.62.81,4.13,1.22,7.54,1.22,10.1,0,17.24-3.53,21.41-10.6s6.26-15.19,6.26-24.37Z"/>
    <path class="cls-3" d="M614.18,938.67c0,2.62-.56,5.39-1.68,8.32-1.12,2.93-2.82,5.74-5.08,8.42s-5.12,4.86-8.57,6.55c-3.45,1.68-7.44,2.53-11.97,2.53s-8.94-.98-13.37-2.93c-4.43-1.95-8.18-4.86-11.25-8.73-1.33,3.08-2.18,5.92-2.56,8.54h-5.74v-28.92h5.74c1.04,4.16,2.47,8.06,4.3,11.72,1.83,3.66,4.41,6.81,7.76,9.44,3.34,2.64,7.45,3.96,12.31,3.96,4.24,0,7.64-1.16,10.19-3.49,2.56-2.33,3.83-5.26,3.83-8.79,0-1.99-.39-3.74-1.18-5.24s-1.93-2.84-3.43-4.02-3.54-2.45-6.14-3.8-5.56-2.77-8.88-4.27c-5.11-2.41-9.31-4.84-12.59-7.29-3.28-2.45-5.76-4.83-7.45-7.14-1.68-2.31-2.85-4.5-3.49-6.58-.65-2.08-.97-4.18-.97-6.3,0-3.78,1.02-7.51,3.05-11.19,2.04-3.68,5.02-6.69,8.94-9.04,3.93-2.35,8.47-3.52,13.62-3.52,3.95,0,7.71.88,11.28,2.65,3.57,1.77,6.67,4.19,9.29,7.26.75-1.75,1.43-4.2,2.06-7.35h5.86v23.56h-5.86c-4.16-12.84-11.39-19.26-21.69-19.26-3.74,0-6.74.99-9.01,2.96-2.27,1.98-3.4,4.52-3.4,7.64,0,2.45.71,4.58,2.12,6.39,1.41,1.81,3.27,3.36,5.58,4.64s6.04,3.14,11.19,5.55c6.23,2.95,11.11,5.51,14.62,7.67,3.51,2.16,6.48,4.88,8.91,8.17,2.43,3.28,3.65,7.25,3.65,11.91Z"/>
  </g>
</svg>